<?xml version="1.0" encoding="UTF-8"?>
<svg xmlns="http://www.w3.org/2000/svg" viewBox="0 0 100 100"><path d="M47.7 9.1 C71.6 7.5 92.2 23.6 93 45.9 C93.8 69.8 78.6 91.1 55.5 91.9 C31.6 92.7 7 78.3 7.8 54.4 C8.6 30.5 24.6 10.7 47.7 9.1Z" fill="#204ECF"/><g transform="translate(50 51) scale(.8) translate(-50 -50)"><g fill="none" stroke="#FBF6F1" stroke-width="2.3" stroke-linecap="round" stroke-linejoin="round" transform="translate(20 20) scale(2.5)"><path d="M9.5 3h5"/><path d="M10 3.5v6L5.6 18a2 2 0 0 0 1.8 3h9.2a2 2 0 0 0 1.8-3L14 9.5v-6"/><path d="M7.8 15h8.4"/></g></g></svg>
