<?xml version="1.0" encoding="UTF-8"?>
<svg xmlns="http://www.w3.org/2000/svg" viewBox="0 0 100 100"><path d="M49.8 11.2 C73.7 12.4 90.8 29.8 89 52.1 C87 75.9 73.7 91.8 50.6 89.9 C26.8 87.9 6.5 76.3 10 52.7 C13.6 29 26.6 10 49.8 11.2Z" fill="#c0442c"/><g transform="translate(50 51) scale(2.2) translate(-12 -12)" fill="none" stroke="#FBF6F1" stroke-width="2.25" stroke-linecap="round" stroke-linejoin="round"><circle cx="9.5" cy="8" r="3.5"/><path d="M4.5 19.5v-1a3 3 0 0 1 3-3h4a3 3 0 0 1 3 3v1"/><path d="M15.5 4.8a3.5 3.5 0 0 1 0 6.4"/><path d="M19.5 19.5v-1a3 3 0 0 0-2.5-3"/></g></svg>
